<svg xmlns="http://www.w3.org/2000/svg" viewBox="0 0 1200 900" width="1200" height="900" preserveAspectRatio="xMidYMid slice"><rect width="1200" height="900" fill="#FFFFFF"/><rect width="1200" height="900" fill="#F0E4D8" opacity="0.5"/><rect x="0" y="0" width="1200" height="378" fill="#C0703A" opacity="0.10"/><rect x="864" y="522" width="408" height="450" fill="#C0703A" opacity="0.16"/><polygon points="(-7.932000000000016, 819.0) (600.0, 1170.0) (600.0, 468.0) (-7.932000000000016, 117.0)" fill="#C0703A" opacity="0.16"/><polygon points="(1207.932, 819.0) (1207.932, 117.0) (600.0, 468.0) (600.0, 1170.0)" fill="#C0703A" opacity="0.34"/><line x1="600.0" y1="468.0" x2="1207.9" y2="819.0" stroke="#0B0B0C" stroke-width="1.15" opacity="0.35"/><line x1="1207.9" y1="819.0" x2="1207.9" y2="117.0" stroke="#0B0B0C" stroke-width="1.15" opacity="0.85"/><line x1="1207.9" y1="117.0" x2="600.0" y2="-234.0" stroke="#0B0B0C" stroke-width="1.15" opacity="0.85"/><line x1="600.0" y1="-234.0" x2="600.0" y2="468.0" stroke="#0B0B0C" stroke-width="1.15" opacity="0.35"/><line x1="-7.9" y1="819.0" x2="600.0" y2="1170.0" stroke="#0B0B0C" stroke-width="1.15" opacity="0.35"/><line x1="600.0" y1="1170.0" x2="600.0" y2="468.0" stroke="#0B0B0C" stroke-width="1.15" opacity="0.85"/><line x1="600.0" y1="468.0" x2="-7.9" y2="117.0" stroke="#0B0B0C" stroke-width="1.15" opacity="0.85"/><line x1="-7.9" y1="117.0" x2="-7.9" y2="819.0" stroke="#0B0B0C" stroke-width="1.15" opacity="0.35"/><line x1="600.0" y1="468.0" x2="-7.9" y2="819.0" stroke="#0B0B0C" stroke-width="1.15" opacity="0.35"/><line x1="1207.9" y1="819.0" x2="600.0" y2="1170.0" stroke="#0B0B0C" stroke-width="1.15" opacity="0.85"/><line x1="1207.9" y1="117.0" x2="600.0" y2="468.0" stroke="#0B0B0C" stroke-width="1.15" opacity="0.85"/><line x1="600.0" y1="-234.0" x2="-7.9" y2="117.0" stroke="#0B0B0C" stroke-width="1.15" opacity="0.35"/><circle cx="600.0" cy="468.0" r="2.2" fill="#C0703A"/><circle cx="1207.9" cy="819.0" r="2.2" fill="#C0703A"/><circle cx="1207.9" cy="117.0" r="2.2" fill="#C0703A"/><circle cx="600.0" cy="-234.0" r="2.2" fill="#C0703A"/><circle cx="-7.9" cy="819.0" r="2.2" fill="#C0703A"/><circle cx="600.0" cy="1170.0" r="2.2" fill="#C0703A"/><circle cx="600.0" cy="468.0" r="2.2" fill="#C0703A"/><circle cx="-7.9" cy="117.0" r="2.2" fill="#C0703A"/><path d="M18 40 V18 H40" stroke="#C0703A" stroke-width="1.25" opacity="0.5" fill="none"/><path d="M1160 18 H1182 V40" stroke="#C0703A" stroke-width="1.25" opacity="0.5" fill="none"/><path d="M1182 860 V882 H1160" stroke="#C0703A" stroke-width="1.25" opacity="0.5" fill="none"/><path d="M40 882 H18 V860" stroke="#C0703A" stroke-width="1.25" opacity="0.5" fill="none"/><filter id="g"><feTurbulence type="fractalNoise" baseFrequency="0.85" numOctaves="3" stitchTiles="stitch"/><feColorMatrix type="saturate" values="0"/></filter><rect width="1200" height="900" filter="url(#g)" opacity="0.055"/></svg>