<svg xmlns="http://www.w3.org/2000/svg" viewBox="0 0 1600 1000" width="1600" height="1000" preserveAspectRatio="xMidYMid slice"><rect width="1600" height="1000" fill="#FFFFFF"/><rect width="1600" height="1000" fill="#E3DEF8" opacity="0.5"/><rect x="0" y="0" width="1600" height="420" fill="#6B4EE6" opacity="0.10"/><rect x="1152" y="580" width="544" height="500" fill="#6B4EE6" opacity="0.16"/><line x1="575" y1="235" x2="318" y2="290" stroke="#0B0B0C" stroke-width="0.9" opacity="0.24"/><line x1="575" y1="235" x2="345" y2="210" stroke="#0B0B0C" stroke-width="0.9" opacity="0.24"/><line x1="993" y1="175" x2="846" y2="398" stroke="#0B0B0C" stroke-width="0.9" opacity="0.24"/><line x1="993" y1="175" x2="899" y2="421" stroke="#0B0B0C" stroke-width="0.9" opacity="0.24"/><line x1="846" y1="398" x2="899" y2="421" stroke="#0B0B0C" stroke-width="0.9" opacity="0.24"/><line x1="234" y1="506" x2="208" y2="450" stroke="#0B0B0C" stroke-width="0.9" opacity="0.24"/><line x1="234" y1="506" x2="318" y2="290" stroke="#0B0B0C" stroke-width="0.9" opacity="0.24"/><line x1="208" y1="450" x2="249" y2="189" stroke="#0B0B0C" stroke-width="0.9" opacity="0.24"/><line x1="208" y1="450" x2="318" y2="290" stroke="#0B0B0C" stroke-width="0.9" opacity="0.24"/><line x1="208" y1="450" x2="345" y2="210" stroke="#0B0B0C" stroke-width="0.9" opacity="0.24"/><line x1="249" y1="189" x2="318" y2="290" stroke="#0B0B0C" stroke-width="0.9" opacity="0.24"/><line x1="249" y1="189" x2="345" y2="210" stroke="#0B0B0C" stroke-width="0.9" opacity="0.24"/><line x1="703" y1="748" x2="963" y2="840" stroke="#0B0B0C" stroke-width="0.9" opacity="0.24"/><line x1="703" y1="748" x2="555" y2="740" stroke="#0B0B0C" stroke-width="0.9" opacity="0.24"/><line x1="318" y1="290" x2="345" y2="210" stroke="#0B0B0C" stroke-width="0.9" opacity="0.24"/><line x1="1410" y1="155" x2="1259" y2="340" stroke="#0B0B0C" stroke-width="0.9" opacity="0.24"/><circle cx="575" cy="235" r="8" fill="#6B4EE6" opacity="1"/><circle cx="993" cy="175" r="5" fill="#0B0B0C" opacity="0.62"/><circle cx="846" cy="398" r="5" fill="#0B0B0C" opacity="0.62"/><circle cx="234" cy="506" r="5" fill="#0B0B0C" opacity="0.62"/><circle cx="208" cy="450" r="8" fill="#6B4EE6" opacity="1"/><circle cx="249" cy="189" r="5" fill="#0B0B0C" opacity="0.62"/><circle cx="703" cy="748" r="5" fill="#0B0B0C" opacity="0.62"/><circle cx="318" cy="290" r="5" fill="#0B0B0C" opacity="0.62"/><circle cx="963" cy="840" r="8" fill="#6B4EE6" opacity="1"/><circle cx="899" cy="421" r="5" fill="#0B0B0C" opacity="0.62"/><circle cx="1410" cy="155" r="5" fill="#0B0B0C" opacity="0.62"/><circle cx="1259" cy="340" r="5" fill="#0B0B0C" opacity="0.62"/><circle cx="345" cy="210" r="8" fill="#6B4EE6" opacity="1"/><circle cx="555" cy="740" r="5" fill="#0B0B0C" opacity="0.62"/><rect x="128" y="60" width="480" height="35" fill="#0B0B0C" opacity="0.13"/><rect x="128" y="115" width="288" height="35" fill="#6B4EE6" opacity="0.85"/><path d="M18 40 V18 H40" stroke="#6B4EE6" stroke-width="1.25" opacity="0.5" fill="none"/><path d="M1560 18 H1582 V40" stroke="#6B4EE6" stroke-width="1.25" opacity="0.5" fill="none"/><path d="M1582 960 V982 H1560" stroke="#6B4EE6" stroke-width="1.25" opacity="0.5" fill="none"/><path d="M40 982 H18 V960" stroke="#6B4EE6" stroke-width="1.25" opacity="0.5" fill="none"/><filter id="g"><feTurbulence type="fractalNoise" baseFrequency="0.85" numOctaves="3" stitchTiles="stitch"/><feColorMatrix type="saturate" values="0"/></filter><rect width="1600" height="1000" filter="url(#g)" opacity="0.055"/></svg>