<svg xmlns="http://www.w3.org/2000/svg" viewBox="0 0 1200 900" width="1200" height="900" preserveAspectRatio="xMidYMid slice"><rect width="1200" height="900" fill="#FFFFFF"/><rect width="1200" height="900" fill="#DDE5DD" opacity="0.5"/><rect x="0" y="0" width="1200" height="378" fill="#4A6B4F" opacity="0.10"/><rect x="864" y="522" width="408" height="450" fill="#4A6B4F" opacity="0.16"/><rect x="168" y="126" width="864" height="124" rx="3" fill="#fff" stroke="#0B0B0C" stroke-width="1" opacity="0.9"/><rect x="168" y="126" width="43" height="124" fill="#4A6B4F" opacity="0.28"/><rect x="289" y="166" width="147" height="44" rx="2" fill="#0B0B0C" opacity="0.17"/><rect x="479" y="166" width="147" height="44" rx="2" fill="#0B0B0C" opacity="0.17"/><rect x="669" y="166" width="147" height="44" rx="2" fill="#0B0B0C" opacity="0.17"/><circle cx="1014" cy="188" r="3" fill="#4A6B4F" opacity="0.9"/><rect x="168" y="256" width="864" height="124" rx="3" fill="#fff" stroke="#0B0B0C" stroke-width="1" opacity="0.9"/><rect x="168" y="256" width="43" height="124" fill="#4A6B4F" opacity="0.7"/><rect x="289" y="295" width="147" height="44" rx="2" fill="#0B0B0C" opacity="0.17"/><rect x="479" y="295" width="147" height="44" rx="2" fill="#0B0B0C" opacity="0.17"/><rect x="669" y="295" width="147" height="44" rx="2" fill="#0B0B0C" opacity="0.17"/><circle cx="1014" cy="317" r="3" fill="#4A6B4F" opacity="0.9"/><rect x="168" y="385" width="864" height="124" rx="3" fill="#fff" stroke="#0B0B0C" stroke-width="1" opacity="0.9"/><rect x="168" y="385" width="43" height="124" fill="#4A6B4F" opacity="0.28"/><rect x="289" y="425" width="147" height="44" rx="2" fill="#0B0B0C" opacity="0.17"/><rect x="479" y="425" width="147" height="44" rx="2" fill="#0B0B0C" opacity="0.17"/><rect x="669" y="425" width="147" height="44" rx="2" fill="#0B0B0C" opacity="0.17"/><circle cx="1014" cy="447" r="3" fill="#4A6B4F" opacity="0.9"/><rect x="168" y="515" width="864" height="124" rx="3" fill="#fff" stroke="#0B0B0C" stroke-width="1" opacity="0.9"/><rect x="168" y="515" width="43" height="124" fill="#4A6B4F" opacity="0.28"/><rect x="289" y="554" width="147" height="44" rx="2" fill="#0B0B0C" opacity="0.17"/><rect x="479" y="554" width="147" height="44" rx="2" fill="#0B0B0C" opacity="0.17"/><rect x="669" y="554" width="147" height="44" rx="2" fill="#0B0B0C" opacity="0.17"/><circle cx="1014" cy="577" r="3" fill="#4A6B4F" opacity="0.3"/><rect x="168" y="644" width="864" height="124" rx="3" fill="#fff" stroke="#0B0B0C" stroke-width="1" opacity="0.9"/><rect x="168" y="644" width="43" height="124" fill="#4A6B4F" opacity="0.28"/><rect x="289" y="684" width="147" height="44" rx="2" fill="#0B0B0C" opacity="0.17"/><rect x="479" y="684" width="147" height="44" rx="2" fill="#0B0B0C" opacity="0.17"/><rect x="669" y="684" width="147" height="44" rx="2" fill="#0B0B0C" opacity="0.17"/><circle cx="1014" cy="706" r="3" fill="#4A6B4F" opacity="0.3"/><path d="M18 40 V18 H40" stroke="#4A6B4F" stroke-width="1.25" opacity="0.5" fill="none"/><path d="M1160 18 H1182 V40" stroke="#4A6B4F" stroke-width="1.25" opacity="0.5" fill="none"/><path d="M1182 860 V882 H1160" stroke="#4A6B4F" stroke-width="1.25" opacity="0.5" fill="none"/><path d="M40 882 H18 V860" stroke="#4A6B4F" stroke-width="1.25" opacity="0.5" fill="none"/><filter id="g"><feTurbulence type="fractalNoise" baseFrequency="0.85" numOctaves="3" stitchTiles="stitch"/><feColorMatrix type="saturate" values="0"/></filter><rect width="1200" height="900" filter="url(#g)" opacity="0.055"/></svg>