<svg xmlns="http://www.w3.org/2000/svg" viewBox="0 0 1200 900" width="1200" height="900" preserveAspectRatio="xMidYMid slice"><rect width="1200" height="900" fill="#FFFFFF"/><rect width="1200" height="900" fill="#DDE5DD" opacity="0.5"/><rect x="0" y="0" width="1200" height="378" fill="#4A6B4F" opacity="0.10"/><rect x="864" y="522" width="408" height="450" fill="#4A6B4F" opacity="0.16"/><rect x="144" y="90" width="912" height="720" rx="6" fill="#fff" stroke="#0B0B0C" stroke-width="1"/><circle cx="600" cy="270" r="153" fill="none" stroke="#4A6B4F" stroke-width="2" opacity="0.9"/><circle cx="600" cy="270" r="81" fill="#4A6B4F" opacity="0.9"/><line x1="600" y1="270" x2="741" y2="330" stroke="#4A6B4F" stroke-width="1" opacity="0.45"/><line x1="600" y1="270" x2="619" y2="422" stroke="#4A6B4F" stroke-width="1" opacity="0.45"/><line x1="600" y1="270" x2="478" y2="362" stroke="#4A6B4F" stroke-width="1" opacity="0.45"/><line x1="600" y1="270" x2="459" y2="210" stroke="#4A6B4F" stroke-width="1" opacity="0.45"/><line x1="600" y1="270" x2="581" y2="118" stroke="#4A6B4F" stroke-width="1" opacity="0.45"/><line x1="600" y1="270" x2="722" y2="178" stroke="#4A6B4F" stroke-width="1" opacity="0.45"/><rect x="166" y="540" width="565" height="40" rx="3" fill="#0B0B0C" opacity="0.13"/><rect x="166" y="564" width="565" height="40" rx="3" fill="#0B0B0C" opacity="0.13"/><rect x="166" y="588" width="565" height="40" rx="3" fill="#0B0B0C" opacity="0.13"/><rect x="874" y="540" width="164" height="6" rx="2" fill="#0B0B0C" opacity="0.20"/><rect x="874" y="551" width="164" height="6" rx="2" fill="#0B0B0C" opacity="0.20"/><rect x="874" y="562" width="164" height="6" rx="2" fill="#0B0B0C" opacity="0.20"/><rect x="874" y="573" width="164" height="6" rx="2" fill="#0B0B0C" opacity="0.20"/><rect x="874" y="584" width="164" height="6" rx="2" fill="#0B0B0C" opacity="0.20"/><rect x="874" y="595" width="164" height="6" rx="2" fill="#0B0B0C" opacity="0.20"/><rect x="874" y="606" width="164" height="6" rx="2" fill="#0B0B0C" opacity="0.20"/><rect x="874" y="617" width="164" height="6" rx="2" fill="#0B0B0C" opacity="0.20"/><path d="M18 40 V18 H40" stroke="#4A6B4F" stroke-width="1.25" opacity="0.5" fill="none"/><path d="M1160 18 H1182 V40" stroke="#4A6B4F" stroke-width="1.25" opacity="0.5" fill="none"/><path d="M1182 860 V882 H1160" stroke="#4A6B4F" stroke-width="1.25" opacity="0.5" fill="none"/><path d="M40 882 H18 V860" stroke="#4A6B4F" stroke-width="1.25" opacity="0.5" fill="none"/><filter id="g"><feTurbulence type="fractalNoise" baseFrequency="0.85" numOctaves="3" stitchTiles="stitch"/><feColorMatrix type="saturate" values="0"/></filter><rect width="1200" height="900" filter="url(#g)" opacity="0.055"/></svg>