<svg xmlns="http://www.w3.org/2000/svg" viewBox="0 0 1200 900" width="1200" height="900" preserveAspectRatio="xMidYMid slice"><rect width="1200" height="900" fill="#FFFFFF"/><rect width="1200" height="900" fill="#DDE2E9" opacity="0.5"/><rect x="0" y="0" width="1200" height="378" fill="#1F3A5F" opacity="0.10"/><rect x="864" y="522" width="408" height="450" fill="#1F3A5F" opacity="0.16"/><rect x="108.0" y="108" width="984" height="684" rx="10" fill="#fff" stroke="#0B0B0C" stroke-width="1"/><rect x="108.0" y="108" width="984" height="68" rx="10" fill="#0B0B0C" opacity="0.92"/><circle cx="128" cy="142" r="4" fill="#F4F3EF" opacity="0.45"/><circle cx="142" cy="142" r="4" fill="#F4F3EF" opacity="0.45"/><circle cx="156" cy="142" r="4" fill="#F4F3EF" opacity="0.45"/><rect x="162" y="234" width="256" height="10" rx="5" fill="#0B0B0C" opacity="0.14"/><rect x="162" y="256" width="256" height="10" rx="5" fill="#0B0B0C" opacity="0.5"/><rect x="162" y="278" width="256" height="10" rx="5" fill="#0B0B0C" opacity="0.14"/><rect x="162" y="300" width="256" height="10" rx="5" fill="#0B0B0C" opacity="0.14"/><rect x="497" y="234" width="541" height="144" rx="8" fill="#1F3A5F" opacity="0.9"/><rect x="162" y="450" width="787" height="50" rx="8" fill="#0B0B0C" opacity="0.11"/><rect x="162" y="480" width="787" height="50" rx="8" fill="#0B0B0C" opacity="0.11"/><rect x="162" y="510" width="787" height="50" rx="8" fill="#0B0B0C" opacity="0.11"/><path d="M18 40 V18 H40" stroke="#1F3A5F" stroke-width="1.25" opacity="0.5" fill="none"/><path d="M1160 18 H1182 V40" stroke="#1F3A5F" stroke-width="1.25" opacity="0.5" fill="none"/><path d="M1182 860 V882 H1160" stroke="#1F3A5F" stroke-width="1.25" opacity="0.5" fill="none"/><path d="M40 882 H18 V860" stroke="#1F3A5F" stroke-width="1.25" opacity="0.5" fill="none"/><filter id="g"><feTurbulence type="fractalNoise" baseFrequency="0.85" numOctaves="3" stitchTiles="stitch"/><feColorMatrix type="saturate" values="0"/></filter><rect width="1200" height="900" filter="url(#g)" opacity="0.055"/></svg>